<?xml version="1.0" encoding="UTF-8"?> <svg xmlns="http://www.w3.org/2000/svg" xmlns:xlink="http://www.w3.org/1999/xlink" version="1.1" id="Layer_1" x="0px" y="0px" width="240px" height="50px" viewBox="0 0 240 50" style="enable-background:new 0 0 240 50;" xml:space="preserve"> <style type="text/css"> .st0{fill:#212A35;} .st1{fill:#237048;} </style> <g> <g> <path class="st0" d="M61,42.2l15.3-20.3H61.2v-5.2h22.9V21L68.7,41.3h15.6v5.1H61V42.2z"></path> <path class="st0" d="M94.5,25c3.3,0,5.4,1.1,6.8,2.7l0.1-2.2h5.5v21h-5.5l-0.1-2.2c-1.4,1.6-3.7,2.7-6.8,2.7 c-6,0-10.2-4.6-10.2-11C84.3,29.5,88.5,25,94.5,25z M89.9,35.9c0,3.3,2.3,6,5.7,6c3.3,0,5.7-2.6,5.7-6c0-3.3-2.4-5.9-5.7-5.9 C92.3,30,89.9,32.5,89.9,35.9z"></path> <path class="st0" d="M116.2,15.6v17.6l7.7-7.8h7.5l-9.2,9l9.4,12h-6.9l-6.2-8.4l-2.2,2.2v6.2h-5.6V15.6H116.2z"></path> <path class="st0" d="M130.4,38.3v-3.8l4-1.6V15.6h5.6v15l4-1.6v4l-4,1.6v11.9h-5.6v-9.7L130.4,38.3z"></path> <path class="st0" d="M155.2,25c3.3,0,5.5,1.1,6.8,2.7l0.1-2.2h5.5v21h-5.5l-0.1-2.2c-1.4,1.6-3.7,2.7-6.8,2.7 c-6,0-10.2-4.6-10.2-11C145,29.5,149.2,25,155.2,25z M150.7,35.9c0,3.3,2.3,6,5.7,6c3.3,0,5.7-2.6,5.7-6c0-3.3-2.4-5.9-5.7-5.9 C153,30,150.7,32.5,150.7,35.9z"></path> <path class="st0" d="M180,25c3.4,0,5.5,1.2,6.9,3V15.6h5.5v30.8h-5.5l-0.1-2.2c-1.4,1.6-3.7,2.7-6.8,2.7c-6,0-10.2-4.6-10.2-11 C169.8,29.5,174,25,180,25z M175.4,35.9c0,3.3,2.3,6,5.7,6c3.3,0,5.7-2.6,5.7-6c0-3.3-2.4-5.9-5.7-5.9 C177.8,30,175.4,32.5,175.4,35.9z"></path> <path class="st0" d="M201.7,15.6v17.6l7.7-7.8h7.5l-9.2,9l9.4,12h-6.9l-6.2-8.4l-2.2,2.2v6.2h-5.6V15.6H201.7z"></path> <path class="st0" d="M227,25c3.3,0,5.4,1.1,6.8,2.7l0.1-2.2h5.5v21h-5.5l-0.1-2.2c-1.4,1.6-3.7,2.7-6.8,2.7c-6,0-10.2-4.6-10.2-11 C216.8,29.5,221,25,227,25z M222.5,35.9c0,3.3,2.3,6,5.7,6c3.3,0,5.7-2.6,5.7-6c0-3.3-2.4-5.9-5.7-5.9 C224.8,30,222.5,32.5,222.5,35.9z"></path> </g> <g> <path class="st0" d="M64.4,4.3c1,0,1.6,0.4,2,0.9V4.4h1.2v5.7h-1.2V9.4c-0.4,0.5-1.1,0.9-2,0.9c-1.6,0-2.9-1.2-2.9-3 S62.7,4.3,64.4,4.3z M62.7,7.3c0,1.1,0.7,1.9,1.8,1.9c1.1,0,1.9-0.9,1.9-1.9s-0.8-1.9-1.9-1.9C63.4,5.4,62.7,6.2,62.7,7.3z"></path> <path class="st0" d="M68.9,10.1V4.4h1.2v0.7c0.2-0.3,0.7-0.8,1.8-0.8c1.6,0,2.4,1,2.4,2.4v3.5H73V6.9c0-0.9-0.5-1.5-1.4-1.5 c-0.9,0-1.6,0.5-1.6,1.5v3.2H68.9z"></path> <path class="st0" d="M74.7,5.4v-1h1V2.6h1.1v1.8h1.8v1h-1.8v2.8c0,0.6,0.4,0.9,0.9,0.9c0.3,0,0.6-0.1,0.9-0.2l0.2,1 c-0.3,0.1-0.8,0.2-1.2,0.2c-1.2,0-1.9-0.7-1.9-1.8v-3H74.7z"></path> <path class="st0" d="M79,4.4h1.3l1.8,4.5l1.8-4.5h1.3l-2.7,6.4c-0.5,1.1-0.9,1.8-2.3,1.8c-0.5,0-0.8-0.2-0.9-0.2l0.1-1 c0.2,0.1,0.5,0.1,0.8,0.1c0.8,0,1.1-0.4,1.3-1.1l0.1-0.3L79,4.4z"></path> <path class="st0" d="M87.1,1.8v5.1l2.5-2.5h1.6l-2.5,2.4l2.5,3.3h-1.5l-1.9-2.5l-0.8,0.8v1.7h-1.2V1.8H87.1z"></path> <path class="st0" d="M91.6,4.4h1.2L94.1,9l1.3-4.5h1.2L98,9l1.3-4.5h1.2l-1.7,5.7h-1.6L96,6.1l-1.2,4.1h-1.6L91.6,4.4z"></path> <path class="st0" d="M103.3,4.3c1,0,1.6,0.4,2,0.9V4.4h1.2v5.7h-1.2V9.4c-0.4,0.5-1.1,0.9-2,0.9c-1.6,0-2.9-1.2-2.9-3 S101.7,4.3,103.3,4.3z M101.6,7.3c0,1.1,0.7,1.9,1.8,1.9s1.9-0.9,1.9-1.9s-0.8-1.9-1.9-1.9C102.4,5.4,101.6,6.2,101.6,7.3z"></path> <path class="st0" d="M107.9,10.1V4.4h1.2v0.8c0.3-0.6,0.9-0.9,1.5-0.9c0.4,0,0.8,0.1,0.8,0.1l-0.1,1.1c-0.1,0-0.3-0.1-0.7-0.1 c-0.6,0-1.4,0.3-1.4,1.6v3.1H107.9z"></path> <path class="st0" d="M112.8,1.8c0.4,0,0.7,0.3,0.7,0.7s-0.3,0.7-0.7,0.7S112,3,112,2.5S112.3,1.8,112.8,1.8z M112.2,10.1V4.4h1.2 v5.7H112.2z"></path> <path class="st0" d="M117.4,4.3c1,0,1.6,0.4,2,0.9V4.4h1.2v5.7h-1.2V9.4c-0.4,0.5-1.1,0.9-2,0.9c-1.6,0-2.9-1.2-2.9-3 S115.7,4.3,117.4,4.3z M115.7,7.3c0,1.1,0.7,1.9,1.8,1.9s1.9-0.9,1.9-1.9s-0.8-1.9-1.9-1.9C116.4,5.4,115.7,6.2,115.7,7.3z"></path> <path class="st0" d="M121.5,5.4v-1h1V2.6h1.1v1.8h1.8v1h-1.8v2.8c0,0.6,0.4,0.9,0.9,0.9c0.3,0,0.6-0.1,0.9-0.2l0.2,1 c-0.3,0.1-0.8,0.2-1.2,0.2c-1.2,0-1.9-0.7-1.9-1.8v-3H121.5z"></path> </g> <g> <path class="st1" d="M36.8,0.1H12.6C6,0.1,0.6,5.5,0.6,12.2v24.2C0.6,43,6,48.4,12.6,48.4h21.2V32.6c-3.2,1-6.2,2.2-9.1,3.7 c-3.7-2-7.7-3.5-12.1-4.5V12.2c4.2,0.7,8.2,2.1,12.1,4.5c3.8-2.4,7.9-3.8,12.1-4.5v37.8l6-6l6,6V12.2C48.9,5.5,43.5,0.1,36.8,0.1z "></path> </g> </g> </svg> 